# xmcd CD database file
#
# Track frame offsets:
#	150
#	13922
#	43417
#	54697
#	68835
#	84905
#	103195
#	122425
#	135182
#	158182
#	166070
#	181382
#	193652
#	233150
#
# Disc length: 3614 seconds
#
# Revision: 0
# Processed by: cddbd v1.5.1PL0 Copyright (c) Steve Scherf et al.
# Submitted via: CDex 1.51
#
DISCID=b60e1c0e
DTITLE=Charlie Christian - Masters of Jazz - disc 2
DYEAR=1997
DGENRE=Jazz
TTITLE0=Wholly Cats
TTITLE1=Benny's Bugle
TTITLE2=Benny's Bugle
TTITLE3=Breakfast Feud
TTITLE4=Breakfast Feud
TTITLE5=I found a new Baby
TTITLE6=Profoundly Blue
TTITLE7=Jammin' in Four
TTITLE8=Solo Flight
TTITLE9=A Smooth One (Waiting For Benny)
TTITLE10=Blues In B
TTITLE11=Good Enough To Keep (Air Mail Special)
TTITLE12=Ida, Sweet As Apple Cider
TTITLE13=Topsy (Charlis's Choice - Swing To Bop)
EXTD=YEAR: 1997
EXTT0=
EXTT1=
EXTT2=
EXTT3=
EXTT4=
EXTT5=
EXTT6=
EXTT7=
EXTT8=
EXTT9=
EXTT10=
EXTT11=
EXTT12=
EXTT13=
PLAYORDER=
